<svg width="1252" height="884" viewBox="0 0 1252 884" fill="none" xmlns="http://www.w3.org/2000/svg">
<path d="M699 95.2484C699 241.699 578.649 475 393.41 475C208.172 475 0 287.53 0 141.08C0 -5.36985 260.869 -38.9741 335.403 190.186C385.957 -35.7004 699 -51.2017 699 95.2484Z" fill="#B60C0C"/>
<path d="M1252 229.425C1252 323.333 1073.31 392.659 870.978 447.071C721.197 487.349 532 398.149 532 304.241C532 210.333 706.986 107 870.978 107C1034.97 107 1252 135.518 1252 229.425Z" fill="#DDC43E"/>
<path d="M731.889 329.818L1060.93 308L947.978 884L731.889 840.364V329.818Z" fill="#075622"/>
<path d="M560 473.818H1223L1168.98 705.091L560 670.182V473.818Z" fill="#075622"/>
<path d="M588 675.299C563.505 834.478 491.274 884 335.697 884C180.12 884 54 790.561 54 675.299C54 560.036 349.139 410 504.716 410C660.293 410 406.734 558.567 588 675.299Z" fill="#2C95E1"/>
</svg>
