<svg width="243" height="211" viewBox="0 0 243 211" fill="none" xmlns="http://www.w3.org/2000/svg">
<path d="M84.895 17.378C92.6433 -5.08654 124.414 -5.08655 132.162 17.378L141.446 44.294C144.924 54.3763 154.415 61.1423 165.08 61.1423L217.243 61.1424C239.358 61.1424 250.583 87.7464 235.15 103.587L197.208 142.535C191.172 148.731 188.768 157.607 190.852 166.003L194.095 179.066C199.631 201.369 174.675 218.699 155.711 205.72L120.166 181.392C112.943 176.448 103.66 175.642 95.6926 179.268L57.0046 196.87C34.0514 207.314 11.8275 181.061 25.9171 160.147L31.9985 151.12C39.6728 139.729 36.7196 124.279 25.3848 116.521L11.1416 106.773C-9.1408 92.8912 0.68364 61.1423 25.2616 61.1423H51.9776C62.6429 61.1423 72.1337 54.3763 75.6113 44.294L84.895 17.378Z" fill="#FFDF38"/>
</svg>
