<svg width="106" height="108" viewBox="0 0 106 108" fill="none" xmlns="http://www.w3.org/2000/svg">
<path d="M7.24484 60.9172C8.74609 51.1608 17.141 43.9589 27.0122 43.9589H76.2141C85.6606 43.9589 93.8189 50.5684 95.7789 59.8093L100.878 83.8509C103.516 96.29 94.0289 108.001 81.3132 108.001H23.3128C11.0549 108.001 1.68127 97.0742 3.54549 84.9589L7.24484 60.9172Z" fill="#B60C0C"/>
<path d="M79.5 24.9645C79.5 40.1524 69.5 44.5 51 52.4645C29.5 43.5 21.5 40.1524 21.5 24.9645C21.5 9.77668 29 -11 51 11C71 -13 79.5 9.77668 79.5 24.9645Z" fill="#B60C0C"/>
</svg>
