<svg id="Layer_1" data-name="Layer 1" xmlns="http://www.w3.org/2000/svg" viewBox="0 0 1145.42 350.85"><defs><style>.cls-1{fill:#fefefe;}.cls-2{fill:#243e92;}.cls-3{fill:#2b6c36;}.cls-4{fill:#2b6c37;}.cls-5{fill:#fcfcfd;}</style></defs><path class="cls-1" d="M571.43,338.92q-282.31,0-564.64.13c-5.52,0-7.22-.63-7.21-6.82Q0,163.39-.4-5.45c0-5.75,1.8-6.35,6.77-6.34q565.94.16,1131.85,0c5,0,6.78.61,6.76,6.35q-.33,168.84,0,337.68c0,6.2-1.7,6.82-7.21,6.81Q854.61,338.82,571.43,338.92Z" transform="translate(0.42 11.79)"/><path class="cls-2" d="M192.74,229.18c0,13.39-.2,26.78.09,40.17.11,5.25-1.71,7-6.92,6.8a215.42,215.42,0,0,0-22.3,0c-5.67.31-7.39-1.69-7.33-7.3.26-23.65.08-47.28.13-70.93,0-4-.18-8-2-11.66-2.79-5.66-7.34-8.64-13.7-8.47s-10.9,3.09-13.24,9.05a37.48,37.48,0,0,0-2.41,14.19c.12,22.21-.23,44.44.21,66.65.14,6.93-2.09,9-8.75,8.48a148.64,148.64,0,0,0-20.57,0c-5.77.37-7.28-1.88-7.22-7.36.26-22.79.12-45.58.11-68.37,0-14.36-5.46-22.37-15.35-22.65-10.35-.29-16,7.69-16,22.76,0,22.51-.22,45,.14,67.51.1,6.45-1.94,8.58-8.33,8.14-7.4-.51-14.87-.16-22.3-.12-3.18,0-6-.69-5.9-4.48.84-31-3.68-62.26,2.22-92.86,6.53-33.89,39-44.23,68-33.35a21.3,21.3,0,0,1,9.8,6.7c3.72,4.86,6.53,5.19,11.35.41,19.76-19.56,59.57-13.09,72.69,11.36a59.89,59.89,0,0,1,7.59,30.27C192.52,205.82,192.74,217.5,192.74,229.18Z" transform="translate(0.42 11.79)"/><path class="cls-2" d="M427.74,263.14c-38.84,23.55-86.53,2-92.56-40.82-4.08-29.12,2.23-56.57,30.14-72.35,21.83-12.33,43.5-11.37,64.82,4.92-1-14.24,8.83-10.78,16.37-10.83,17-.11,17,0,17,17q0,49.57,0,99.16c0,40.45-25.29,65.74-65.79,65.68-9.15,0-18.32-.33-27.45.1-6,.28-7.31-2.32-7-7.58a171.75,171.75,0,0,0,0-19.65c-.38-5.88,1.56-7.87,7.67-7.85,11.95.05,24,1.44,35.88-1.32C421.28,286.26,427,279.28,427.74,263.14Z" transform="translate(0.42 11.79)"/><path class="cls-2" d="M793.21,265.68c1.69,9.87-2.89,11.14-9.65,10.49a82.74,82.74,0,0,0-15.42,0c-6.29.57-7.6-2.17-7.58-7.89q.26-88,0-176c0-6.4,1.8-8.62,8.24-8.15a178.16,178.16,0,0,0,21.43,0c5.25-.26,7,1.63,6.89,6.84-.25,17.08-.13,34.17,0,51.26,0,2.75-.82,5.67,1.24,8.75,11.87-6.44,24.1-10.75,38.11-8.57,27.52,4.3,44.29,20.93,51.2,46.49,7.31,27,3.25,52.37-18,73.12-20.22,19.77-48.52,22.51-71.81,6.56C796.86,268,795.91,267.41,793.21,265.68Z" transform="translate(0.42 11.79)"/><path class="cls-2" d="M563.89,221.28c-12.59,0-25.16-.06-37.74,0-7.84,0-8.56,1.33-5,8.4,6.34,12.62,21.49,19.39,36.41,15.89,8.73-2.05,16.72-5.92,22.81-12.67,3.51-3.89,6.12-4,9.69-.06,3.24,3.56,7.28,6.35,10.81,9.66,8,7.52,7.95,7.79.2,16C581.84,279,549.9,285.4,522,274.48c-22.59-8.85-38.22-34-38.32-61.66-.1-24,6.85-45,26.91-59.83,37.87-28,90.9-5.5,97,41,.85,6.45,1.37,12.94,1.65,19.48.28,6.79-2.41,8.13-8.51,7.92C588.49,221,576.18,221.28,563.89,221.28Z" transform="translate(0.42 11.79)"/><path class="cls-2" d="M1099.12,210.74c0,33.49-18.23,59.08-47.65,66.91-37.66,10-72.73-11.5-81.67-50.13-8.39-36.25,10-71.74,43-82.86,42.44-14.33,86.32,17.08,86.36,61.8C1099.14,207.9,1099.14,209.32,1099.12,210.74Z" transform="translate(0.42 11.79)"/><path class="cls-2" d="M268.5,220.37c7-21.89,14.35-43.69,20.83-65.73,2.24-7.62,5-11.95,13.86-10.78a97.5,97.5,0,0,0,19.7.06c7.15-.52,8.24,1.76,5.89,8.26-9.86,27.32-19.32,54.77-28.93,82.19s-19.46,54.73-28.68,82.27c-2.38,7.1-5.76,10.13-13.41,9.43-7.37-.69-14.86-.29-22.29-.1-4.72.13-6-1.05-4.2-5.91,5.16-13.57,9.67-27.38,14.78-41,1.84-4.88,1.49-9.09-.36-13.91-14-36.4-27.92-72.83-41.49-109.38-4.95-13.36-5.32-11.63,7.85-11.75,7.15-.07,14.32.35,21.44-.13,5.67-.38,8,2,9.67,7.11,6.81,21.15,14,42.18,21.07,63.24.71,2.09,1.62,4.12,2.44,6.17Z" transform="translate(0.42 11.79)"/><path class="cls-2" d="M629.19,225.42c1.42-13.9-2.41-31.08,2.21-48,5.81-21.16,24.64-35.45,46.76-35.9,13.14-.27,25.64,1,36.78,8.8,16.72,11.69,21.26,29.12,21.78,47.81.65,23.63,0,47.31.27,71,.07,5.88-2.24,7.3-7.6,7a172.33,172.33,0,0,0-21.44,0c-6.85.49-9-2.14-8.89-8.77.29-23.09.13-46.17.12-69.25,0-13-5.95-20.27-16.66-20.38-10.13-.09-16.94,8-17,20.46-.06,23.37-.18,46.75.1,70.11.08,5.83-1.48,8.25-7.66,7.83a184.93,184.93,0,0,0-21.45,0c-5.65.27-7.54-1.94-7.43-7.46C629.37,255.3,629.19,241.9,629.19,225.42Z" transform="translate(0.42 11.79)"/><path class="cls-2" d="M947.5,210.67c0,19.06-.22,38.12.12,57.19.12,6.11-1.26,8.85-8,8.35a220.33,220.33,0,0,0-22.26-.08c-4.16.11-6.24-1-6.23-5.68q.2-60.6,0-121.19c0-4.24,2-5.34,5.76-5.27,8,.15,16,.32,24-.05,5.44-.26,6.74,2,6.69,7C947.36,170.84,947.5,190.76,947.5,210.67Z" transform="translate(0.42 11.79)"/><path class="cls-3" d="M919.38,129c-2.28,0-4.56.12-6.84,0-3.7-.25-4.93-1.66-3.21-5.53,6-13.49,11.29-27.32,18.85-40,7.34-12.38,21.14-18.09,35.22-15,2.15.46,6.6,1,2.51,4.4C958.39,79.1,959,88,957.66,96.16,954.35,116.05,939.39,129,919.38,129Z" transform="translate(0.42 11.79)"/><path class="cls-4" d="M910.77,14.1c14.84,5.07,23.25,18.65,20,33-3,13-7.21,25.69-10.7,38.58-1.5,5.55-4,2.06-6,.83a34.38,34.38,0,0,1-10.84-49.11C908.05,30.25,913,23.59,910.77,14.1Z" transform="translate(0.42 11.79)"/><path class="cls-1" d="M428.54,208.39c0,18.59-11.5,30.41-29.41,30.28-17-.11-28.35-12.36-28.33-30.59s11.46-30.23,28.66-30.32C417,177.68,428.56,189.85,428.54,208.39Z" transform="translate(0.42 11.79)"/><path class="cls-1" d="M795.94,210.75c-2.79-24.42,21.36-41,43.35-28.94,14.52,8,19.22,31.68,9.39,47.81-8.45,13.84-27.83,17.65-41.26,8.11C799.4,232,795.94,223.89,795.94,210.75Z" transform="translate(0.42 11.79)"/><path class="cls-5" d="M546.07,193.85c-7.13,0-14.27-.09-21.4,0-4.64.09-5.92-2-3.52-5.68,6.3-9.57,14.93-15.7,26.87-15.37,10.56.29,18.36,5.17,23,15,2,4.2,1.93,6.28-3.52,6.12C560.35,193.69,553.21,193.85,546.07,193.85Z" transform="translate(0.42 11.79)"/><path class="cls-1" d="M1062.84,210.66c.05,12.54-4.6,22.92-15.53,29.44-9.33,5.57-19.08,4.73-28.46-.75-14.34-8.39-17-28.42-11.27-43.49,5.6-14.72,20.41-21.22,34.91-16.69C1054.79,183,1062.78,195.39,1062.84,210.66Z" transform="translate(0.42 11.79)"/></svg>