<svg width="1698" height="1041" viewBox="0 0 1698 1041" fill="none" xmlns="http://www.w3.org/2000/svg">
<rect width="1698" height="1041" rx="25" fill="white"/>
<path d="M74.9088 85.76H68.5888L63.3888 75.08L62.5888 90H56.1488L58.1488 63.36H64.0688L71.7488 79.64L79.4288 63.36H85.3488L87.3488 90H80.9088L80.1088 75.08L74.9088 85.76ZM93.5591 98.24L96.1191 90.48L89.0391 70.4H95.6791L99.2791 84.36L102.839 70.4H109.279L99.9991 98.24H93.5591ZM125.273 62.88C128.74 62.88 131.647 63.4267 133.993 64.52L133.113 69.48C130.82 68.5733 128.42 68.12 125.913 68.12C124.58 68.12 123.38 68.2933 122.313 68.64C121.247 68.9867 120.327 69.5333 119.553 70.28C118.807 71 118.22 71.9333 117.793 73.08C117.393 74.2 117.193 75.5467 117.193 77.12C117.193 79.8933 117.913 81.9867 119.353 83.4C120.82 84.8133 122.967 85.52 125.793 85.52C126.407 85.52 126.993 85.48 127.553 85.4C128.113 85.2933 128.58 85.1733 128.953 85.04V77.6H134.833V88.56C133.687 89.12 132.22 89.5867 130.433 89.96C128.673 90.3067 126.833 90.48 124.913 90.48C122.673 90.48 120.673 90.16 118.913 89.52C117.153 88.8533 115.66 87.9333 114.433 86.76C113.207 85.5867 112.26 84.1867 111.593 82.56C110.953 80.9067 110.633 79.08 110.633 77.08C110.633 74.9467 110.953 73.0133 111.593 71.28C112.26 69.52 113.22 68.0267 114.473 66.8C115.727 65.5467 117.26 64.5867 119.073 63.92C120.887 63.2267 122.953 62.88 125.273 62.88ZM148.244 70C150.804 70 152.831 70.76 154.324 72.28C155.817 73.7733 156.564 75.8533 156.564 78.52C156.564 79.5333 156.444 80.6133 156.204 81.76H144.844C144.897 82.96 145.297 83.9333 146.044 84.68C146.817 85.4 147.991 85.76 149.564 85.76C150.524 85.76 151.524 85.68 152.564 85.52C153.631 85.3333 154.551 85.0667 155.324 84.72L156.124 88.84C155.111 89.3467 153.964 89.7333 152.684 90C151.431 90.2667 150.124 90.4 148.764 90.4C147.057 90.4 145.551 90.16 144.244 89.68C142.937 89.1733 141.844 88.48 140.964 87.6C140.084 86.72 139.417 85.6667 138.964 84.44C138.511 83.2133 138.284 81.8533 138.284 80.36C138.284 78.76 138.511 77.32 138.964 76.04C139.444 74.76 140.111 73.68 140.964 72.8C141.844 71.8933 142.897 71.2 144.124 70.72C145.351 70.24 146.724 70 148.244 70ZM148.044 74.08C147.031 74.08 146.244 74.4133 145.684 75.08C145.151 75.72 144.884 76.6133 144.884 77.76H150.564C150.617 77.5467 150.644 77.32 150.644 77.08C150.644 76.2267 150.417 75.52 149.964 74.96C149.511 74.3733 148.871 74.08 148.044 74.08ZM160.189 90V70.4H166.349V72.96C166.962 71.8933 167.749 71.1333 168.709 70.68C169.696 70.2267 170.736 70 171.829 70C173.136 70 174.242 70.28 175.149 70.84C176.056 71.3733 176.789 72.0933 177.349 73C177.936 73.9067 178.349 74.96 178.589 76.16C178.856 77.3333 178.989 78.5733 178.989 79.88V90H172.589V79.76C172.589 78.1333 172.336 76.9467 171.829 76.2C171.322 75.4267 170.549 75.04 169.509 75.04C168.842 75.04 168.256 75.1867 167.749 75.48C167.269 75.7733 166.882 76.1333 166.589 76.56V90H160.189ZM202.989 72.04C202.989 73.4533 202.683 74.72 202.069 75.84C201.456 76.96 200.603 77.9067 199.509 78.68C198.443 79.4267 197.176 80 195.709 80.4C194.243 80.8 192.656 81 190.949 81H190.269V90H183.709V63.36H191.389C193.069 63.36 194.616 63.5333 196.029 63.88C197.469 64.2267 198.696 64.76 199.709 65.48C200.749 66.1733 201.549 67.0667 202.109 68.16C202.696 69.2533 202.989 70.5467 202.989 72.04ZM196.669 72.08C196.669 69.6267 194.923 68.4 191.429 68.4H190.269V75.96H191.349C193.083 75.96 194.403 75.6133 195.309 74.92C196.216 74.2267 196.669 73.28 196.669 72.08ZM216.573 88.08C215.96 88.6933 215.12 89.24 214.053 89.72C213.013 90.1733 211.866 90.4 210.613 90.4C209.733 90.4 208.946 90.2533 208.253 89.96C207.56 89.6667 206.973 89.2667 206.493 88.76C206.04 88.2533 205.68 87.6667 205.413 87C205.173 86.3067 205.053 85.5733 205.053 84.8C205.053 82.9867 205.613 81.6267 206.733 80.72C207.88 79.7867 209.493 79.24 211.573 79.08C212.346 79.0267 213.16 78.9867 214.013 78.96C214.893 78.9333 215.666 78.9067 216.333 78.88V78.24C216.333 76.1067 215.146 75.04 212.773 75.04C211.84 75.04 210.933 75.1467 210.053 75.36C209.2 75.5733 208.413 75.8667 207.693 76.24L206.533 71.8C207.466 71.2667 208.56 70.84 209.813 70.52C211.093 70.1733 212.48 70 213.973 70C216.72 70 218.866 70.72 220.413 72.16C221.96 73.5733 222.733 75.7067 222.733 78.56V90H216.573V88.08ZM213.093 86.2C213.706 86.2 214.28 86.12 214.813 85.96C215.373 85.8 215.88 85.5867 216.333 85.32V82.4C215.693 82.4533 215.12 82.52 214.613 82.6C214.106 82.6533 213.613 82.7067 213.133 82.76C211.826 82.92 211.173 83.5333 211.173 84.6C211.173 85.08 211.333 85.4667 211.653 85.76C212 86.0533 212.48 86.2 213.093 86.2ZM236.499 70C237.513 70 238.499 70.1067 239.459 70.32C240.446 70.5333 241.299 70.8267 242.019 71.2L241.379 75.76C240.873 75.5467 240.259 75.36 239.539 75.2C238.846 75.04 238.139 74.96 237.419 74.96C235.713 74.96 234.433 75.4267 233.579 76.36C232.726 77.2933 232.299 78.5733 232.299 80.2C232.299 81.8267 232.726 83.1067 233.579 84.04C234.433 84.9733 235.713 85.44 237.419 85.44C238.139 85.44 238.846 85.36 239.539 85.2C240.259 85.04 240.873 84.8533 241.379 84.64L242.019 89.2C241.299 89.5733 240.446 89.8667 239.459 90.08C238.499 90.2933 237.513 90.4 236.499 90.4C234.846 90.4 233.353 90.16 232.019 89.68C230.713 89.1733 229.606 88.48 228.699 87.6C227.793 86.6933 227.099 85.6133 226.619 84.36C226.139 83.1067 225.899 81.72 225.899 80.2C225.899 78.68 226.139 77.2933 226.619 76.04C227.099 74.7867 227.793 73.72 228.699 72.84C229.606 71.9333 230.713 71.24 232.019 70.76C233.353 70.2533 234.846 70 236.499 70ZM245.423 90V61.76H251.823V79.56L257.703 70.4H264.623L258.303 80.04L265.463 90H258.143L251.823 80.52V90H245.423ZM278.487 88.08C277.874 88.6933 277.034 89.24 275.967 89.72C274.927 90.1733 273.781 90.4 272.527 90.4C271.647 90.4 270.861 90.2533 270.167 89.96C269.474 89.6667 268.887 89.2667 268.407 88.76C267.954 88.2533 267.594 87.6667 267.327 87C267.087 86.3067 266.967 85.5733 266.967 84.8C266.967 82.9867 267.527 81.6267 268.647 80.72C269.794 79.7867 271.407 79.24 273.487 79.08C274.261 79.0267 275.074 78.9867 275.927 78.96C276.807 78.9333 277.581 78.9067 278.247 78.88V78.24C278.247 76.1067 277.061 75.04 274.687 75.04C273.754 75.04 272.847 75.1467 271.967 75.36C271.114 75.5733 270.327 75.8667 269.607 76.24L268.447 71.8C269.381 71.2667 270.474 70.84 271.727 70.52C273.007 70.1733 274.394 70 275.887 70C278.634 70 280.781 70.72 282.327 72.16C283.874 73.5733 284.647 75.7067 284.647 78.56V90H278.487V88.08ZM275.007 86.2C275.621 86.2 276.194 86.12 276.727 85.96C277.287 85.8 277.794 85.5867 278.247 85.32V82.4C277.607 82.4533 277.034 82.52 276.527 82.6C276.021 82.6533 275.527 82.7067 275.047 82.76C273.741 82.92 273.087 83.5333 273.087 84.6C273.087 85.08 273.247 85.4667 273.567 85.76C273.914 86.0533 274.394 86.2 275.007 86.2ZM307.413 70.4V74.48H304.533L304.493 74.44C304.787 75.24 304.933 76.0133 304.933 76.76C304.933 77.6667 304.747 78.52 304.373 79.32C304.027 80.12 303.493 80.8267 302.773 81.44C302.08 82.0267 301.2 82.4933 300.133 82.84C299.093 83.1867 297.88 83.36 296.493 83.36H296.253C296.147 83.5467 296.053 83.7333 295.973 83.92C295.92 84.08 295.893 84.2667 295.893 84.48C295.893 84.8533 296.027 85.1333 296.293 85.32C296.587 85.48 296.947 85.5733 297.373 85.6L300.813 85.8C302.787 85.9333 304.36 86.4533 305.533 87.36C306.733 88.24 307.333 89.56 307.333 91.32C307.333 92.5467 307 93.6133 306.333 94.52C305.693 95.4533 304.827 96.2133 303.733 96.8C302.667 97.4133 301.453 97.8667 300.093 98.16C298.733 98.48 297.347 98.64 295.933 98.64C294.813 98.64 293.72 98.56 292.653 98.4C291.613 98.24 290.68 97.96 289.853 97.56C289.027 97.1867 288.36 96.68 287.853 96.04C287.347 95.4 287.093 94.6133 287.093 93.68C287.093 93.0667 287.227 92.52 287.493 92.04C287.76 91.5867 288.12 91.1867 288.573 90.84C289.027 90.4933 289.547 90.2 290.133 89.96C290.72 89.72 291.32 89.5333 291.933 89.4C290.76 88.8133 290.173 87.92 290.173 86.72C290.173 86.2133 290.267 85.76 290.453 85.36C290.667 84.96 290.92 84.6133 291.213 84.32C291.507 84 291.827 83.7333 292.173 83.52C292.547 83.28 292.893 83.0933 293.213 82.96C291.507 82.5067 290.213 81.7333 289.333 80.64C288.48 79.52 288.053 78.2267 288.053 76.76C288.053 75.8 288.227 74.92 288.573 74.12C288.947 73.2933 289.48 72.5733 290.173 71.96C290.893 71.3467 291.773 70.8667 292.813 70.52C293.88 70.1733 295.107 70 296.493 70C297.08 70 297.627 70.04 298.133 70.12C298.667 70.1733 299.16 70.2667 299.613 70.4H307.413ZM294.613 90.08C294.293 90.32 293.96 90.6133 293.613 90.96C293.267 91.3067 293.093 91.76 293.093 92.32C293.093 93.0667 293.4 93.6133 294.013 93.96C294.653 94.3067 295.533 94.48 296.653 94.48C297.24 94.48 297.813 94.4133 298.373 94.28C298.96 94.1733 299.48 94 299.933 93.76C300.387 93.5467 300.747 93.28 301.013 92.96C301.28 92.6667 301.413 92.32 301.413 91.92C301.413 91.44 301.24 91.0933 300.893 90.88C300.573 90.6667 300.053 90.5333 299.333 90.48L294.613 90.08ZM296.493 79.44C297.427 79.44 298.133 79.2 298.613 78.72C299.093 78.2133 299.333 77.5333 299.333 76.68C299.333 75.8267 299.093 75.16 298.613 74.68C298.133 74.1733 297.427 73.92 296.493 73.92C295.56 73.92 294.853 74.1733 294.373 74.68C293.893 75.16 293.653 75.8267 293.653 76.68C293.653 77.5333 293.893 78.2133 294.373 78.72C294.853 79.2 295.56 79.44 296.493 79.44ZM318.986 70C321.546 70 323.573 70.76 325.066 72.28C326.56 73.7733 327.306 75.8533 327.306 78.52C327.306 79.5333 327.186 80.6133 326.946 81.76H315.586C315.64 82.96 316.04 83.9333 316.786 84.68C317.56 85.4 318.733 85.76 320.306 85.76C321.266 85.76 322.266 85.68 323.306 85.52C324.373 85.3333 325.293 85.0667 326.066 84.72L326.866 88.84C325.853 89.3467 324.706 89.7333 323.426 90C322.173 90.2667 320.866 90.4 319.506 90.4C317.8 90.4 316.293 90.16 314.986 89.68C313.68 89.1733 312.586 88.48 311.706 87.6C310.826 86.72 310.16 85.6667 309.706 84.44C309.253 83.2133 309.026 81.8533 309.026 80.36C309.026 78.76 309.253 77.32 309.706 76.04C310.186 74.76 310.853 73.68 311.706 72.8C312.586 71.8933 313.64 71.2 314.866 70.72C316.093 70.24 317.466 70 318.986 70ZM318.786 74.08C317.773 74.08 316.986 74.4133 316.426 75.08C315.893 75.72 315.626 76.6133 315.626 77.76H321.306C321.36 77.5467 321.386 77.32 321.386 77.08C321.386 76.2267 321.16 75.52 320.706 74.96C320.253 74.3733 319.613 74.08 318.786 74.08Z" fill="black"/>
<path fill-rule="evenodd" clip-rule="evenodd" d="M1279.43 0L1673 0C1686.81 0 1698 11.1929 1698 25V326.859C1646.38 378.988 1569.88 412 1484.5 412C1329.03 412 1203 302.534 1203 167.5C1203 102.683 1232.04 43.7564 1279.43 0Z" fill="#CF0202"/>
<path fill-rule="evenodd" clip-rule="evenodd" d="M1698 487V1016C1698 1029.81 1686.81 1041 1673 1041H992V487H1698Z" fill="#2C95E1"/>
<path fill-rule="evenodd" clip-rule="evenodd" d="M271.183 1041H25C11.1928 1041 0 1029.81 0 1016V827.481L358.45 716.818L271.183 1041Z" fill="#FFDF38"/>
<rect x="191" y="167" width="1316" height="707" rx="25" fill="white"/>
<path d="M554.615 359.4V350.79C552.888 350.557 551.231 350.23 549.645 349.81C548.105 349.39 546.681 348.877 545.375 348.27L547.335 339.94C549.155 340.733 550.928 341.317 552.655 341.69C554.428 342.017 556.271 342.18 558.185 342.18C559.725 342.18 561.125 341.853 562.385 341.2C563.645 340.5 564.275 339.357 564.275 337.77C564.275 336.417 563.785 335.32 562.805 334.48C561.825 333.64 560.121 332.66 557.695 331.54C555.548 330.56 553.728 329.603 552.235 328.67C550.741 327.69 549.505 326.663 548.525 325.59C547.591 324.47 546.915 323.257 546.495 321.95C546.075 320.597 545.865 319.057 545.865 317.33C545.865 315.65 546.098 314.157 546.565 312.85C547.078 311.497 547.755 310.33 548.595 309.35C549.435 308.323 550.415 307.483 551.535 306.83C552.655 306.13 553.868 305.593 555.175 305.22V295.98H565.185V304.66C566.818 304.893 568.311 305.22 569.665 305.64C571.018 306.06 572.255 306.55 573.375 307.11L571.275 315.51C570.061 314.903 568.661 314.367 567.075 313.9C565.488 313.433 563.855 313.2 562.175 313.2C560.541 313.2 559.235 313.503 558.255 314.11C557.275 314.717 556.785 315.65 556.785 316.91C556.785 317.563 556.901 318.123 557.135 318.59C557.368 319.01 557.741 319.43 558.255 319.85C558.815 320.27 559.491 320.69 560.285 321.11C561.125 321.53 562.105 322.02 563.225 322.58C564.438 323.187 565.745 323.887 567.145 324.68C568.545 325.427 569.828 326.337 570.995 327.41C572.208 328.483 573.211 329.767 574.005 331.26C574.798 332.707 575.195 334.41 575.195 336.37C575.195 339.777 574.238 342.717 572.325 345.19C570.411 347.617 567.845 349.297 564.625 350.23V359.4H554.615ZM610.658 339.87V351H599.738V339.87H581.538L579.998 331.68L597.288 304.38H610.658V331.33H616.818V339.87H610.658ZM599.738 314.04L590.008 331.33H599.738V314.04ZM625.878 343.37C627.418 342.67 629.028 341.923 630.708 341.13C632.435 340.337 634.068 339.38 635.608 338.26C637.148 337.14 638.525 335.857 639.738 334.41C640.952 332.917 641.862 331.143 642.468 329.09C641.302 330.163 639.948 330.98 638.408 331.54C636.868 332.053 635.352 332.31 633.858 332.31C631.992 332.31 630.242 332.007 628.608 331.4C626.975 330.793 625.528 329.907 624.268 328.74C623.055 327.573 622.098 326.15 621.398 324.47C620.698 322.743 620.348 320.807 620.348 318.66C620.348 316.187 620.768 314.017 621.608 312.15C622.495 310.237 623.662 308.65 625.108 307.39C626.602 306.13 628.328 305.173 630.288 304.52C632.248 303.867 634.325 303.54 636.518 303.54C639.552 303.54 642.165 304.1 644.358 305.22C646.552 306.293 648.348 307.717 649.748 309.49C651.148 311.263 652.175 313.27 652.828 315.51C653.482 317.75 653.808 320.013 653.808 322.3C653.808 329.44 651.638 335.507 647.298 340.5C643.005 345.447 637.008 349.227 629.308 351.84L625.878 343.37ZM630.778 318.17C630.778 319.897 631.268 321.273 632.248 322.3C633.275 323.327 634.675 323.84 636.448 323.84C637.755 323.84 638.945 323.583 640.018 323.07C641.138 322.557 642.025 321.973 642.678 321.32C642.678 320.153 642.562 319.01 642.328 317.89C642.142 316.77 641.815 315.79 641.348 314.95C640.928 314.063 640.322 313.363 639.528 312.85C638.735 312.29 637.732 312.01 636.518 312.01C634.838 312.01 633.462 312.593 632.388 313.76C631.315 314.88 630.778 316.35 630.778 318.17ZM685.427 316.28V323.77H696.067V316.28H685.427ZM706.357 292.41V357.23H715.247V292.41H706.357ZM693.127 293.39V354.29H701.877V293.39H693.127ZM674.087 296.96C665.547 296.96 660.087 305.85 660.087 320.48C660.087 335.18 665.547 344.07 674.087 344.07C682.697 344.07 688.227 335.18 688.227 320.48C688.227 305.85 682.697 296.96 674.087 296.96ZM674.087 305.71C677.727 305.71 679.757 310.61 679.757 320.48C679.757 330.42 677.727 335.25 674.087 335.25C670.587 335.25 668.557 330.42 668.557 320.48C668.557 310.61 670.587 305.71 674.087 305.71ZM740.71 304.38H754.92C759.027 304.38 762.783 304.963 766.19 306.13C769.643 307.297 772.583 308.907 775.01 310.96C777.437 313.013 779.327 315.487 780.68 318.38C782.033 321.227 782.71 324.33 782.71 327.69C782.71 331.05 782.033 334.177 780.68 337.07C779.327 339.917 777.437 342.367 775.01 344.42C772.583 346.473 769.643 348.083 766.19 349.25C762.783 350.417 759.027 351 754.92 351H740.71V304.38ZM755.62 341.9C757.953 341.9 760.077 341.573 761.99 340.92C763.903 340.267 765.537 339.333 766.89 338.12C768.29 336.907 769.363 335.437 770.11 333.71C770.857 331.937 771.23 329.93 771.23 327.69C771.23 325.45 770.857 323.467 770.11 321.74C769.363 319.967 768.29 318.473 766.89 317.26C765.537 316.047 763.903 315.113 761.99 314.46C760.077 313.807 757.953 313.48 755.62 313.48H752.19V341.9H755.62ZM819.555 351L800.305 323.21V351H789.245V304.38H800.305L819.555 332.17V304.38H830.615V351H819.555ZM868.535 341.97H850.685L847.815 351H835.985L853.345 304.38H865.945L883.305 351H871.475L868.535 341.97ZM853.625 332.87H865.595L859.645 313.2L853.625 332.87ZM928.387 316V323.49H939.867V316H928.387ZM903.887 335.53V343.02H908.297C917.607 343.02 923.837 342.88 931.117 341.62L930.347 334.2C923.277 335.39 917.397 335.53 908.297 335.53H903.887ZM903.887 299.55V338.26H912.707V306.9H927.967V299.55H903.887ZM910.187 316.98V324.12H925.517V316.98H910.187ZM948.827 292.41V357.23H957.717V292.41H948.827ZM935.457 293.53V354.36H944.137V293.53H935.457ZM990.472 296.12V300.81C990.472 310.12 982.422 320.41 967.792 322.93L971.782 330.63C988.582 327.34 998.592 314.88 998.592 300.81V296.12H990.472ZM992.362 296.12V300.81C992.362 315.09 1002.3 327.34 1019.1 330.63L1023.09 322.93C1008.39 320.41 1000.41 310.33 1000.41 300.81V296.12H992.362ZM966.462 341.76V349.32H1025.12V341.76H966.462ZM1037.72 325.8V333.08H1083.29V325.8H1037.72ZM1030.86 342.25V349.81H1089.52V342.25H1030.86ZM1037.72 297.1V327.83H1047.17V304.59H1082.73V297.1H1037.72ZM1044.3 311.38V318.59H1081.26V311.38H1044.3ZM1095.18 321.46V328.25H1153.91V321.46H1095.18ZM1101.76 331.47V337.77H1137.74V340.99H1101.9V352.4H1111.14V346.87H1146.91V331.47H1101.76ZM1101.9 350.44V356.74H1148.73V350.44H1101.9ZM1102.39 293.53V299.76H1137.6V302.98H1102.46V314.11H1111.7V308.79H1146.77V293.53H1102.39ZM1102.46 312.15V318.45H1147.96V312.15H1102.46ZM630.351 418V411.95C629.084 411.817 627.834 411.583 626.601 411.25C625.367 410.883 624.267 410.467 623.301 410L624.151 406.5C625.417 407.067 626.667 407.533 627.901 407.9C629.134 408.233 630.434 408.4 631.801 408.4C633.767 408.4 635.267 407.967 636.301 407.1C637.367 406.2 637.901 404.933 637.901 403.3C637.901 402.5 637.734 401.767 637.401 401.1C637.067 400.433 636.601 399.833 636.001 399.3C635.434 398.733 634.767 398.217 634.001 397.75C633.234 397.283 632.434 396.833 631.601 396.4C630.634 395.9 629.684 395.35 628.751 394.75C627.817 394.117 626.984 393.417 626.251 392.65C625.517 391.883 624.934 391.033 624.501 390.1C624.067 389.133 623.851 388.067 623.851 386.9C623.851 384.6 624.534 382.8 625.901 381.5C627.267 380.167 628.967 379.317 631.001 378.95V372.7H635.051V378.8C636.017 378.867 637.051 379.033 638.151 379.3C639.284 379.533 640.234 379.883 641.001 380.35L640.151 383.85C637.917 382.817 635.701 382.3 633.501 382.3C631.801 382.3 630.501 382.683 629.601 383.45C628.701 384.183 628.251 385.283 628.251 386.75C628.251 387.483 628.384 388.133 628.651 388.7C628.951 389.233 629.351 389.733 629.851 390.2C630.351 390.633 630.917 391.067 631.551 391.5C632.217 391.9 632.917 392.317 633.651 392.75C634.351 393.183 635.201 393.7 636.201 394.3C637.201 394.867 638.151 395.567 639.051 396.4C639.951 397.2 640.717 398.15 641.351 399.25C641.984 400.35 642.301 401.633 642.301 403.1C642.301 405.4 641.584 407.3 640.151 408.8C638.717 410.267 636.801 411.25 634.401 411.75V418H630.351ZM665.607 402.4V412H661.257V402.4H647.407L646.807 398.9L660.607 378.7H665.607V398.75H670.107V402.4H665.607ZM661.257 383.7L651.257 398.75H661.257V383.7ZM678.169 409.4C679.869 408.567 681.452 407.683 682.919 406.75C684.386 405.783 685.702 404.717 686.869 403.55C688.069 402.383 689.069 401.083 689.869 399.65C690.702 398.183 691.302 396.5 691.669 394.6C690.769 395.7 689.652 396.583 688.319 397.25C686.986 397.883 685.452 398.2 683.719 398.2C682.252 398.2 680.919 397.967 679.719 397.5C678.519 397 677.486 396.317 676.619 395.45C675.752 394.583 675.086 393.567 674.619 392.4C674.152 391.2 673.919 389.9 673.919 388.5C673.919 386.933 674.186 385.517 674.719 384.25C675.286 382.95 676.052 381.85 677.019 380.95C678.019 380.05 679.169 379.35 680.469 378.85C681.802 378.35 683.236 378.1 684.769 378.1C686.669 378.1 688.336 378.5 689.769 379.3C691.202 380.067 692.386 381.067 693.319 382.3C694.252 383.533 694.952 384.917 695.419 386.45C695.886 387.983 696.119 389.517 696.119 391.05C696.119 393.617 695.719 395.983 694.919 398.15C694.152 400.317 693.052 402.283 691.619 404.05C690.186 405.817 688.469 407.417 686.469 408.85C684.502 410.25 682.302 411.5 679.869 412.6L678.169 409.4ZM678.319 388.55C678.319 390.483 678.852 391.967 679.919 393C681.019 394 682.536 394.5 684.469 394.5C685.936 394.5 687.286 394.167 688.519 393.5C689.786 392.833 690.852 392.017 691.719 391.05C691.752 389.917 691.636 388.783 691.369 387.65C691.136 386.517 690.719 385.517 690.119 384.65C689.552 383.783 688.819 383.083 687.919 382.55C687.052 381.983 686.019 381.7 684.819 381.7C682.686 381.7 681.069 382.367 679.969 383.7C678.869 385 678.319 386.617 678.319 388.55ZM712.205 406.85V410.3H753.155V406.85H712.205ZM730.455 395.15V408.4H734.605V395.15H730.455ZM715.755 375V378.4H749.305V375H715.755ZM715.855 393.2V396.55H749.255V393.2H715.855ZM722.805 377.75V393.8H726.955V377.75H722.805ZM738.205 377.75V393.8H742.305V377.75H738.205ZM791.051 370.75V403.75H795.251V370.75H791.051ZM766.201 411.5V414.9H796.601V411.5H766.201ZM766.201 400.35V412.65H770.301V400.35H766.201ZM771.001 373.85C764.251 373.85 759.201 378.45 759.201 385C759.201 391.5 764.251 396.15 771.001 396.15C777.751 396.15 782.751 391.5 782.751 385C782.751 378.45 777.751 373.85 771.001 373.85ZM771.001 377.45C775.401 377.45 778.751 380.55 778.751 385C778.751 389.4 775.401 392.5 771.001 392.5C766.601 392.5 763.251 389.4 763.251 385C763.251 380.55 766.601 377.45 771.001 377.45ZM809.447 395.05V398.4H840.497V395.05H809.447ZM804.197 406.65V410.1H845.147V406.65H804.197ZM809.447 374.55V396.1H813.647V377.95H839.997V374.55H809.447ZM812.297 384.65V387.95H839.047V384.65H812.297ZM878.636 374.55V376C878.636 381.2 871.286 385.3 863.186 386.2L864.686 389.5C874.036 388.3 882.336 383.3 882.336 376V374.55H878.636ZM880.386 374.55V376C880.386 383.3 888.636 388.3 897.986 389.5L899.486 386.2C891.386 385.3 884.036 381.15 884.036 376V374.55H880.386ZM864.636 372.75V376.1H898.086V372.75H864.636ZM860.886 392.45V395.85H901.886V392.45H860.886ZM865.436 400.5V403.85H892.536V415.9H896.686V400.5H865.436ZM918.832 374.6V382.7C918.832 391.25 913.382 399.9 906.682 403.1L909.232 406.5C916.632 402.75 922.232 393.1 922.232 382.7V374.6H918.832ZM919.532 374.6V382.7C919.532 392.75 925.182 402.05 932.532 405.65L935.032 402.35C928.332 399.25 922.932 390.95 922.932 382.7V374.6H919.532ZM939.732 370.65V415.95H943.882V370.65H939.732ZM975.62 377.15V384.5C975.62 392.3 970.17 400.8 963.62 403.9L966.02 407.2C973.22 403.65 978.97 394.05 978.97 384.5V377.15H975.62ZM976.42 377.15V384.5C976.42 393.9 982.22 402.7 989.52 406.1L991.87 402.8C985.22 399.95 979.77 392.15 979.77 384.5V377.15H976.42ZM965.12 375.3V378.8H990.37V375.3H965.12ZM996.47 370.7V415.9H1000.62V370.7H996.47ZM1014.97 396.55V415.3H1045.32V396.55H1041.17V402.5H1019.07V396.55H1014.97ZM1019.07 405.8H1041.17V411.95H1019.07V405.8ZM1014.87 372.75V376.15H1043.97V372.75H1014.87ZM1009.67 389.1V392.55H1050.62V389.1H1009.67ZM1041.27 372.75V376.05C1041.27 379.75 1041.27 384.05 1039.77 390.1L1043.92 390.05C1045.32 384 1045.32 379.75 1045.32 376.05V372.75H1041.27ZM1072.65 403.05H1070.05L1068.95 389V378.7H1073.65V389L1072.65 403.05ZM1074.2 409.45C1074.2 410.25 1073.94 410.933 1073.4 411.5C1072.87 412.067 1072.17 412.35 1071.3 412.35C1070.44 412.35 1069.74 412.067 1069.2 411.5C1068.67 410.933 1068.4 410.25 1068.4 409.45C1068.4 408.65 1068.67 407.967 1069.2 407.4C1069.74 406.833 1070.44 406.55 1071.3 406.55C1072.17 406.55 1072.87 406.833 1073.4 407.4C1073.94 407.967 1074.2 408.65 1074.2 409.45ZM697.527 567.2V559.94C696.007 559.78 694.507 559.5 693.027 559.1C691.547 558.66 690.227 558.16 689.067 557.6L690.087 553.4C691.607 554.08 693.107 554.64 694.587 555.08C696.067 555.48 697.627 555.68 699.267 555.68C701.627 555.68 703.427 555.16 704.667 554.12C705.947 553.04 706.587 551.52 706.587 549.56C706.587 548.6 706.387 547.72 705.987 546.92C705.587 546.12 705.027 545.4 704.307 544.76C703.627 544.08 702.827 543.46 701.907 542.9C700.987 542.34 700.027 541.8 699.027 541.28C697.867 540.68 696.727 540.02 695.607 539.3C694.487 538.54 693.487 537.7 692.607 536.78C691.727 535.86 691.027 534.84 690.507 533.72C689.987 532.56 689.727 531.28 689.727 529.88C689.727 527.12 690.547 524.96 692.187 523.4C693.827 521.8 695.867 520.78 698.307 520.34V512.84H703.167V520.16C704.327 520.24 705.567 520.44 706.887 520.76C708.247 521.04 709.387 521.46 710.307 522.02L709.287 526.22C706.607 524.98 703.947 524.36 701.307 524.36C699.267 524.36 697.707 524.82 696.627 525.74C695.547 526.62 695.007 527.94 695.007 529.7C695.007 530.58 695.167 531.36 695.487 532.04C695.847 532.68 696.327 533.28 696.927 533.84C697.527 534.36 698.207 534.88 698.967 535.4C699.767 535.88 700.607 536.38 701.487 536.9C702.327 537.42 703.347 538.04 704.547 538.76C705.747 539.44 706.887 540.28 707.967 541.28C709.047 542.24 709.967 543.38 710.727 544.7C711.487 546.02 711.867 547.56 711.867 549.32C711.867 552.08 711.007 554.36 709.287 556.16C707.567 557.92 705.267 559.1 702.387 559.7V567.2H697.527ZM739.834 548.48V560H734.614V548.48H717.994L717.274 544.28L733.834 520.04H739.834V544.1H745.234V548.48H739.834ZM734.614 526.04L722.614 544.1H734.614V526.04ZM754.909 556.88C756.949 555.88 758.849 554.82 760.609 553.7C762.369 552.54 763.949 551.26 765.349 549.86C766.789 548.46 767.989 546.9 768.949 545.18C769.949 543.42 770.669 541.4 771.109 539.12C770.029 540.44 768.689 541.5 767.089 542.3C765.489 543.06 763.649 543.44 761.569 543.44C759.809 543.44 758.209 543.16 756.769 542.6C755.329 542 754.089 541.18 753.049 540.14C752.009 539.1 751.209 537.88 750.649 536.48C750.089 535.04 749.809 533.48 749.809 531.8C749.809 529.92 750.129 528.22 750.769 526.7C751.449 525.14 752.369 523.82 753.529 522.74C754.729 521.66 756.109 520.82 757.669 520.22C759.269 519.62 760.989 519.32 762.829 519.32C765.109 519.32 767.109 519.8 768.829 520.76C770.549 521.68 771.969 522.88 773.089 524.36C774.209 525.84 775.049 527.5 775.609 529.34C776.169 531.18 776.449 533.02 776.449 534.86C776.449 537.94 775.969 540.78 775.009 543.38C774.089 545.98 772.769 548.34 771.049 550.46C769.329 552.58 767.269 554.5 764.869 556.22C762.509 557.9 759.869 559.4 756.949 560.72L754.909 556.88ZM755.089 531.86C755.089 534.18 755.729 535.96 757.009 537.2C758.329 538.4 760.149 539 762.469 539C764.229 539 765.849 538.6 767.329 537.8C768.849 537 770.129 536.02 771.169 534.86C771.209 533.5 771.069 532.14 770.749 530.78C770.469 529.42 769.969 528.22 769.249 527.18C768.569 526.14 767.689 525.3 766.609 524.66C765.569 523.98 764.329 523.64 762.889 523.64C760.329 523.64 758.389 524.44 757.069 526.04C755.749 527.6 755.089 529.54 755.089 531.86ZM795.752 553.82V557.96H844.892V553.82H795.752ZM817.652 539.78V555.68H822.632V539.78H817.652ZM800.012 515.6V519.68H840.272V515.6H800.012ZM800.132 537.44V541.46H840.212V537.44H800.132ZM808.472 518.9V538.16H813.452V518.9H808.472ZM826.952 518.9V538.16H831.872V518.9H826.952ZM890.367 510.5V550.1H895.407V510.5H890.367ZM860.547 559.4V563.48H897.027V559.4H860.547ZM860.547 546.02V560.78H865.467V546.02H860.547ZM866.307 514.22C858.207 514.22 852.147 519.74 852.147 527.6C852.147 535.4 858.207 540.98 866.307 540.98C874.407 540.98 880.407 535.4 880.407 527.6C880.407 519.74 874.407 514.22 866.307 514.22ZM866.307 518.54C871.587 518.54 875.607 522.26 875.607 527.6C875.607 532.88 871.587 536.6 866.307 536.6C861.027 536.6 857.007 532.88 857.007 527.6C857.007 522.26 861.027 518.54 866.307 518.54ZM912.443 539.66V543.68H949.703V539.66H912.443ZM906.143 553.58V557.72H955.283V553.58H906.143ZM912.443 515.06V540.92H917.483V519.14H949.103V515.06H912.443ZM915.863 527.18V531.14H947.963V527.18H915.863ZM961.338 553.88V558.02H1010.48V553.88H961.338ZM983.298 542.24V555.62H988.278V542.24H983.298ZM967.278 514.46V518.48H999.498V526.88H967.458V541.76H972.378V530.9H1004.42V514.46H967.278ZM967.458 539.66V543.74H1005.68V539.66H967.458ZM360.043 621.17V624.965H405.088V621.17H360.043ZM380.173 608.3V622.215H384.738V608.3H380.173ZM365.268 585.695V609.125H399.588V585.695H365.268ZM395.188 589.38V605.44H369.723V589.38H395.188ZM410.639 606.65V610.39H455.574V606.65H410.639ZM416.304 597.465V601.26H450.404V597.465H416.304ZM416.304 583.715V598.73H420.869V587.4H449.964V583.715H416.304ZM416.359 626.395V630.19H450.844V626.395H416.359ZM416.359 615.615V627.385H420.924V615.615H416.359ZM498.406 621.17H489.716L482.566 606.485L481.466 627H472.611L475.361 590.37H483.501L494.061 612.755L504.621 590.37H512.761L515.511 627H506.656L505.556 606.485L498.406 621.17ZM524.05 638.33L527.57 627.66L517.835 600.05H526.965L531.915 619.245L536.81 600.05H545.665L532.905 638.33H524.05ZM567.657 589.71C572.424 589.71 576.421 590.462 579.647 591.965L578.437 598.785C575.284 597.538 571.984 596.915 568.537 596.915C566.704 596.915 565.054 597.153 563.587 597.63C562.121 598.107 560.856 598.858 559.792 599.885C558.766 600.875 557.959 602.158 557.372 603.735C556.822 605.275 556.547 607.127 556.547 609.29C556.547 613.103 557.537 615.982 559.517 617.925C561.534 619.868 564.486 620.84 568.372 620.84C569.216 620.84 570.022 620.785 570.792 620.675C571.562 620.528 572.204 620.363 572.717 620.18V609.95H580.802V625.02C579.226 625.79 577.209 626.432 574.752 626.945C572.332 627.422 569.802 627.66 567.162 627.66C564.082 627.66 561.332 627.22 558.912 626.34C556.492 625.423 554.439 624.158 552.752 622.545C551.066 620.932 549.764 619.007 548.847 616.77C547.967 614.497 547.527 611.985 547.527 609.235C547.527 606.302 547.967 603.643 548.847 601.26C549.764 598.84 551.084 596.787 552.807 595.1C554.531 593.377 556.639 592.057 559.132 591.14C561.626 590.187 564.467 589.71 567.657 589.71ZM599.242 599.5C602.762 599.5 605.549 600.545 607.602 602.635C609.655 604.688 610.682 607.548 610.682 611.215C610.682 612.608 610.517 614.093 610.187 615.67H594.567C594.64 617.32 595.19 618.658 596.217 619.685C597.28 620.675 598.894 621.17 601.057 621.17C602.377 621.17 603.752 621.06 605.182 620.84C606.649 620.583 607.914 620.217 608.977 619.74L610.077 625.405C608.684 626.102 607.107 626.633 605.347 627C603.624 627.367 601.827 627.55 599.957 627.55C597.61 627.55 595.539 627.22 593.742 626.56C591.945 625.863 590.442 624.91 589.232 623.7C588.022 622.49 587.105 621.042 586.482 619.355C585.859 617.668 585.547 615.798 585.547 613.745C585.547 611.545 585.859 609.565 586.482 607.805C587.142 606.045 588.059 604.56 589.232 603.35C590.442 602.103 591.89 601.15 593.577 600.49C595.264 599.83 597.152 599.5 599.242 599.5ZM598.967 605.11C597.574 605.11 596.492 605.568 595.722 606.485C594.989 607.365 594.622 608.593 594.622 610.17H602.432C602.505 609.877 602.542 609.565 602.542 609.235C602.542 608.062 602.23 607.09 601.607 606.32C600.984 605.513 600.104 605.11 598.967 605.11ZM615.666 627V600.05H624.136V603.57C624.98 602.103 626.061 601.058 627.381 600.435C628.738 599.812 630.168 599.5 631.671 599.5C633.468 599.5 634.99 599.885 636.236 600.655C637.483 601.388 638.491 602.378 639.261 603.625C640.068 604.872 640.636 606.32 640.966 607.97C641.333 609.583 641.516 611.288 641.516 613.085V627H632.716V612.92C632.716 610.683 632.368 609.052 631.671 608.025C630.975 606.962 629.911 606.43 628.481 606.43C627.565 606.43 626.758 606.632 626.061 607.035C625.401 607.438 624.87 607.933 624.466 608.52V627H615.666ZM675.012 616.66C675.012 618.31 674.645 619.777 673.912 621.06C673.178 622.343 672.115 623.425 670.722 624.305C669.365 625.185 667.715 625.863 665.772 626.34C663.865 626.78 661.738 627 659.392 627H648.007V590.37H661.152C663.132 590.37 664.892 590.59 666.432 591.03C668.008 591.47 669.328 592.075 670.392 592.845C671.455 593.615 672.262 594.513 672.812 595.54C673.398 596.567 673.692 597.685 673.692 598.895C673.692 601.168 673.05 603.038 671.767 604.505C670.52 605.972 668.687 607.072 666.267 607.805C667.513 608.025 668.668 608.373 669.732 608.85C670.795 609.327 671.712 609.932 672.482 610.665C673.288 611.398 673.912 612.26 674.352 613.25C674.792 614.24 675.012 615.377 675.012 616.66ZM666.102 615.945C666.102 614.552 665.533 613.507 664.397 612.81C663.297 612.077 661.757 611.71 659.777 611.71H656.807V620.235H659.997C662.197 620.235 663.755 619.813 664.672 618.97C665.625 618.127 666.102 617.118 666.102 615.945ZM659.447 604.945C661.023 604.945 662.307 604.597 663.297 603.9C664.287 603.167 664.782 602.14 664.782 600.82C664.782 599.647 664.342 598.748 663.462 598.125C662.618 597.465 661.427 597.135 659.887 597.135H656.807V604.945H659.447ZM680.119 627V600.05H688.919V627H680.119ZM679.569 592.185C679.569 590.792 680.028 589.618 680.944 588.665C681.861 587.712 683.053 587.235 684.519 587.235C685.986 587.235 687.178 587.712 688.094 588.665C689.011 589.618 689.469 590.792 689.469 592.185C689.469 593.578 689.011 594.752 688.094 595.705C687.178 596.658 685.986 597.135 684.519 597.135C683.053 597.135 681.861 596.658 680.944 595.705C680.028 594.752 679.569 593.578 679.569 592.185ZM722.374 613.525C722.374 615.505 722.063 617.357 721.439 619.08C720.816 620.767 719.899 622.252 718.689 623.535C717.479 624.782 715.976 625.772 714.179 626.505C712.383 627.202 710.329 627.55 708.019 627.55C705.709 627.55 703.656 627.202 701.859 626.505C700.063 625.772 698.559 624.782 697.349 623.535C696.139 622.252 695.223 620.767 694.599 619.08C693.976 617.357 693.664 615.505 693.664 613.525C693.664 611.545 693.976 609.712 694.599 608.025C695.223 606.302 696.139 604.817 697.349 603.57C698.559 602.287 700.063 601.297 701.859 600.6C703.656 599.867 705.709 599.5 708.019 599.5C710.329 599.5 712.383 599.867 714.179 600.6C715.976 601.297 717.479 602.287 718.689 603.57C719.899 604.817 720.816 606.302 721.439 608.025C722.063 609.712 722.374 611.545 722.374 613.525ZM713.574 613.525C713.574 612.572 713.483 611.655 713.299 610.775C713.116 609.858 712.804 609.052 712.364 608.355C711.961 607.622 711.393 607.053 710.659 606.65C709.963 606.21 709.083 605.99 708.019 605.99C706.956 605.99 706.058 606.21 705.324 606.65C704.628 607.053 704.059 607.622 703.619 608.355C703.216 609.052 702.923 609.858 702.739 610.775C702.556 611.655 702.464 612.572 702.464 613.525C702.464 614.478 702.556 615.413 702.739 616.33C702.923 617.21 703.216 618.017 703.619 618.75C704.059 619.447 704.628 620.015 705.324 620.455C706.058 620.858 706.956 621.06 708.019 621.06C709.083 621.06 709.963 620.858 710.659 620.455C711.393 620.015 711.961 619.447 712.364 618.75C712.804 618.017 713.116 617.21 713.299 616.33C713.483 615.413 713.574 614.478 713.574 613.525ZM750.428 584.155V589.215C750.428 596.805 745.588 603.515 738.108 606.265L740.528 609.95C748.833 606.705 754.223 598.785 754.223 589.215V584.155H750.428ZM751.253 584.155V589.545C751.253 598.18 756.698 605.55 764.673 608.52L767.093 604.945C759.943 602.47 754.993 596.255 754.993 589.545V584.155H751.253ZM772.373 581.57V611.71H776.938V581.57H772.373ZM775.673 594.385V598.235H784.308V594.385H775.673ZM761.098 613.085C750.923 613.085 744.763 616.44 744.763 622.16C744.763 627.88 750.923 631.18 761.098 631.18C771.273 631.18 777.433 627.88 777.433 622.16C777.433 616.44 771.273 613.085 761.098 613.085ZM761.098 616.715C768.468 616.715 772.978 618.695 772.978 622.16C772.978 625.625 768.468 627.605 761.098 627.605C753.728 627.605 749.218 625.625 749.218 622.16C749.218 618.695 753.728 616.715 761.098 616.715ZM809.164 607.97V616.55H813.674V607.97H809.164ZM788.924 605.55V609.29H833.859V605.55H788.924ZM793.104 583.11V586.85H829.624V583.11H793.104ZM793.324 597.245V600.985H829.404V597.245H793.324ZM800.639 584.76V599.665H805.204V584.76H800.639ZM817.579 584.76V599.665H822.089V584.76H817.579ZM794.424 615.065V630.63H828.359V615.065H794.424ZM823.904 618.695V626.945H798.934V618.695H823.904ZM862.014 582.395C851.014 582.395 844.524 585.475 844.524 591.03C844.524 596.585 851.014 599.665 862.014 599.665C872.959 599.665 879.504 596.585 879.504 591.03C879.504 585.475 872.959 582.395 862.014 582.395ZM862.014 585.86C870.099 585.86 874.774 587.73 874.774 591.03C874.774 594.33 870.099 596.2 862.014 596.2C853.874 596.2 849.199 594.33 849.199 591.03C849.199 587.73 853.874 585.86 862.014 585.86ZM839.519 602.965V606.65H884.454V602.965H839.519ZM844.964 610.885V614.405H874.224V618.805H845.074V628.155H849.584V622.105H878.734V610.885H844.964ZM845.074 627.165V630.74H880.219V627.165H845.074ZM907.596 584.815V588.5H938.671V584.815H907.596ZM901.986 606.155V609.895H946.921V606.155H901.986ZM922.061 608.63V631.345H926.626V608.63H922.061ZM936.526 584.815V589.105C936.526 594.11 936.526 599.885 934.601 607.915L939.111 608.52C940.981 600.105 940.981 594.275 940.981 589.105V584.815H936.526ZM990.422 581.57V631.29H994.822V581.57H990.422ZM982.557 601.26V605H992.072V601.26H982.557ZM979.422 582.615V628.815H983.767V582.615H979.422ZM954.342 587.29V617.98H973.317V587.29H954.342ZM969.027 590.92V614.35H958.632V590.92H969.027ZM1037.17 581.405V608.85H1041.73V581.405H1037.17ZM1039.81 593.34V597.19H1049.1V593.34H1039.81ZM1010.16 611.38V614.845H1037.28V619.19H1010.27V628.54H1014.78V622.49H1041.73V611.38H1010.16ZM1010.27 627.22V630.74H1043.55V627.22H1010.27ZM1003.29 586.025V589.6H1032.66V586.025H1003.29ZM1017.97 591.8C1010.71 591.8 1006.04 594.935 1006.04 599.995C1006.04 605 1010.71 608.08 1017.97 608.08C1025.12 608.08 1029.85 605 1029.85 599.995C1029.85 594.935 1025.12 591.8 1017.97 591.8ZM1017.97 595.155C1022.54 595.155 1025.51 597.025 1025.51 599.995C1025.51 602.91 1022.54 604.78 1017.97 604.78C1013.35 604.78 1010.38 602.91 1010.38 599.995C1010.38 597.025 1013.35 595.155 1017.97 595.155ZM1015.66 581.02V588.5H1020.23V581.02H1015.66ZM1085.66 583.33V586.08C1085.66 593.175 1076.92 599.115 1067.84 600.49L1069.66 604.175C1080 602.415 1089.68 595.595 1089.68 586.08V583.33H1085.66ZM1086.49 583.33V586.08C1086.49 595.485 1096.22 602.415 1106.45 604.175L1108.27 600.49C1099.3 599.115 1090.45 593.01 1090.45 586.08V583.33H1086.49ZM1085.66 612.37V631.29H1090.17V612.37H1085.66ZM1065.59 609.565V613.36H1110.52V609.565H1065.59ZM1140.38 612.15V614.845C1140.38 619.63 1136.64 624.965 1130.37 627.22L1132.68 630.63C1139.83 627.88 1143.9 621.335 1143.9 614.845V612.15H1140.38ZM1141.37 612.15V614.845C1141.37 621.445 1144.61 628.265 1151.76 631.07L1153.69 627.605C1147.75 625.185 1144.78 619.85 1144.78 614.845V612.15H1141.37ZM1158.75 612.15V614.845C1158.75 619.135 1155.72 624.91 1149.84 627.605L1151.76 631.07C1158.86 628.045 1162.16 620.675 1162.16 614.845V612.15H1158.75ZM1159.68 612.15V614.845C1159.68 621.72 1163.64 627.99 1170.9 630.63L1173.21 627.22C1166.89 625.075 1163.2 619.96 1163.2 614.845V612.15H1159.68ZM1164.14 581.625V610.005H1168.76V581.625H1164.14ZM1142.08 584.485C1134.55 584.485 1129.1 589.215 1129.1 596.09C1129.1 602.965 1134.55 607.64 1142.08 607.64C1149.62 607.64 1155.01 602.965 1155.01 596.09C1155.01 589.215 1149.62 584.485 1142.08 584.485ZM1142.08 588.28C1147.03 588.28 1150.61 591.47 1150.61 596.09C1150.61 600.71 1147.03 603.845 1142.08 603.845C1137.13 603.845 1133.56 600.71 1133.56 596.09C1133.56 591.47 1137.13 588.28 1142.08 588.28ZM1184.26 611.38V630.63H1217.65V611.38H1213.08V617.155H1188.77V611.38H1184.26ZM1188.77 620.675H1213.08V626.945H1188.77V620.675ZM1178.54 604.23V607.915H1223.48V604.23H1178.54ZM1198.73 582.12V584.32C1198.73 590.59 1190.09 595.925 1181.13 597.135L1182.78 600.71C1193.01 599.17 1202.63 592.955 1202.63 584.32V582.12H1198.73ZM1199.44 582.12V584.32C1199.44 592.845 1209.12 599.17 1219.24 600.71L1220.95 597.135C1212.09 595.925 1203.35 590.48 1203.35 584.32V582.12H1199.44ZM1265.33 581.57V631.29H1269.89V581.57H1265.33ZM1232.33 586.41V617.21H1236.84V586.41H1232.33ZM1232.33 614.515V618.475H1236.4C1244.26 618.475 1252.13 617.87 1260.76 616.11L1260.21 612.205C1251.8 613.965 1243.93 614.515 1236.4 614.515H1232.33ZM1313.39 581.515V631.345H1318.01V581.515H1313.39ZM1316.91 601.15V605H1326.15V601.15H1316.91ZM1281.88 615.12V618.97H1285.78C1295.13 618.97 1301.68 618.695 1309.32 617.265L1308.83 613.415C1301.4 614.79 1294.97 615.12 1285.78 615.12H1281.88ZM1281.88 586.355V616.825H1286.39V590.095H1304.98V586.355H1281.88ZM1337.86 624.195C1337.86 625.075 1337.57 625.827 1336.98 626.45C1336.4 627.073 1335.63 627.385 1334.67 627.385C1333.72 627.385 1332.95 627.073 1332.36 626.45C1331.78 625.827 1331.48 625.075 1331.48 624.195C1331.48 623.315 1331.78 622.563 1332.36 621.94C1332.95 621.317 1333.72 621.005 1334.67 621.005C1335.63 621.005 1336.4 621.317 1336.98 621.94C1337.57 622.563 1337.86 623.315 1337.86 624.195Z" fill="black"/>
<rect x="633" y="698" width="432" height="131" rx="25" fill="#075622"/>
<path d="M757.011 770.44V773.24H759.771C766.651 773.24 771.011 773 776.211 772.04L775.851 769.32C770.811 770.28 766.491 770.44 759.771 770.44H757.011ZM757.011 749.4V771.48H760.291V752.12H773.451V749.4H757.011ZM781.691 745.96V782.2H785.011V745.96H781.691ZM771.331 759.04V761.8H783.051V759.04H771.331ZM825.322 745.96V764.36H828.642V745.96H825.322ZM827.202 753.72V756.48H833.962V753.72H827.202ZM805.682 766.08V768.72H825.402V772.44H805.762V780.36H809.042V774.96H828.642V766.08H805.682ZM805.762 778.96V781.64H829.962V778.96H805.762ZM810.562 747.24C805.202 747.24 801.242 750.56 801.242 755.28C801.242 760.04 805.202 763.36 810.562 763.36C816.002 763.36 819.922 760.04 819.922 755.28C819.922 750.56 816.002 747.24 810.562 747.24ZM810.562 749.96C814.122 749.96 816.722 752.16 816.722 755.28C816.722 758.44 814.122 760.64 810.562 760.64C807.082 760.64 804.482 758.44 804.482 755.28C804.482 752.16 807.082 749.96 810.562 749.96ZM846.998 748.72C841.678 748.72 837.918 753.64 837.918 761.32C837.918 769.04 841.678 773.96 846.998 773.96C852.318 773.96 856.078 769.04 856.078 761.32C856.078 753.64 852.318 748.72 846.998 748.72ZM846.998 751.72C850.478 751.72 852.918 755.48 852.918 761.32C852.918 767.2 850.478 771.04 846.998 771.04C843.478 771.04 841.078 767.2 841.078 761.32C841.078 755.48 843.478 751.72 846.998 751.72ZM861.838 745.96V782.12H865.198V745.96H861.838ZM864.398 760.4V763.2H871.118V760.4H864.398ZM874.195 774.76V777.52H906.955V774.76H874.195ZM888.835 766.12V775.56H892.155V766.12H888.835ZM878.035 748.52V767H903.035V748.52H899.755V754.96H881.315V748.52H878.035ZM881.315 757.64H899.755V764.28H881.315V757.64ZM937.312 745.96V782.12H940.632V745.96H937.312ZM926.712 749.84V750.4C926.712 760 921.872 767.68 911.432 772.72L913.192 775.4C925.272 769.48 929.992 760.32 929.992 749.84H926.712ZM913.072 749.84V752.56H928.152V749.84H913.072Z" fill="white"/>
</svg>
