<svg width="191" height="161" viewBox="0 0 191 161" fill="none" xmlns="http://www.w3.org/2000/svg">
<path d="M7.5 60C7.5 57.2386 9.73858 55 12.5 55H117.5C120.261 55 122.5 57.2386 122.5 60V156C122.5 158.761 120.261 161 117.5 161H12.5C9.73858 161 7.5 158.761 7.5 156V60Z" fill="#FDA813"/>
<path d="M72.1782 1.20193C73.0841 0.426285 74.2374 0 75.43 0H178.052C182.624 0 184.798 5.6294 181.413 8.70228L123.023 61.7023C122.103 62.5374 120.905 63 119.662 63H13.5277C8.88435 63 6.74868 57.2219 10.2759 54.2019L72.1782 1.20193Z" fill="#FDA813"/>
</svg>
